<?xml version="1.0" encoding="UTF-8" standalone="no"?>
<svg
   height="100"
   viewBox="0 -960 96.433293 99.999997"
   width="96.433296"
   fill="#5f6368"
   version="1.1"
   id="svg1"
   sodipodi:docname="app_icon.svg"
   inkscape:version="1.4 (e7c3feb100, 2024-10-09)"
   xml:space="preserve"
   inkscape:export-filename="play_store_app_icon.png"
   inkscape:export-xdpi="491.51999"
   inkscape:export-ydpi="491.51999"
   xmlns:inkscape="http://www.inkscape.org/namespaces/inkscape"
   xmlns:sodipodi="http://sodipodi.sourceforge.net/DTD/sodipodi-0.dtd"
   xmlns="http://www.w3.org/2000/svg"
   xmlns:svg="http://www.w3.org/2000/svg"><defs
     id="defs1"><filter
       style="color-interpolation-filters:sRGB"
       inkscape:label="Drop Shadow"
       id="filter64"
       x="-0.05"
       y="-0.05"
       width="1.1"
       height="1.1166667"><feFlood
         result="flood"
         in="SourceGraphic"
         flood-opacity="0.325490"
         flood-color="rgb(0,0,0)"
         id="feFlood63" /><feGaussianBlur
         result="blur"
         in="SourceGraphic"
         stdDeviation="0.500000"
         id="feGaussianBlur63" /><feOffset
         result="offset"
         in="blur"
         dx="0.000000"
         dy="0.400000"
         id="feOffset63" /><feComposite
         result="comp1"
         operator="in"
         in="flood"
         in2="offset"
         id="feComposite63" /><feComposite
         result="comp2"
         operator="over"
         in="SourceGraphic"
         in2="comp1"
         id="feComposite64" /></filter></defs><sodipodi:namedview
     id="namedview1"
     pagecolor="#ffffff"
     bordercolor="#666666"
     borderopacity="1.0"
     inkscape:showpageshadow="2"
     inkscape:pageopacity="0.0"
     inkscape:pagecheckerboard="0"
     inkscape:deskcolor="#d1d1d1"
     showgrid="false"
     inkscape:zoom="3.7708333"
     inkscape:cx="65.767956"
     inkscape:cy="114.29834"
     inkscape:window-width="3072"
     inkscape:window-height="1659"
     inkscape:window-x="0"
     inkscape:window-y="0"
     inkscape:window-maximized="1"
     inkscape:current-layer="svg1" /><g
     style="fill:#5f6368;filter:url(#filter64)"
     id="g33"
     transform="matrix(3.6527762,0,0,3.7313433,4.3833315,-955.52239)"><rect
       fill="none"
       height="24"
       width="24"
       id="rect1"
       x="0"
       y="0" /><path
       d="M 7,3 H 4 V 6 H 2 V 1 H 7 Z M 22,6 V 1 h -5 v 2 h 3 V 6 Z M 7,21 H 4 V 18 H 2 v 5 h 5 z m 13,-3 v 3 h -3 v 2 h 5 v -5 z m -1,0 c 0,1.1 -0.9,2 -2,2 H 7 C 5.9,20 5,19.1 5,18 V 6 C 5,4.9 5.9,4 7,4 h 10 c 1.1,0 2,0.9 2,2 z M 15,8 H 9 v 2 h 6 z m 0,3 H 9 v 2 h 6 z m 0,3 H 9 v 2 h 6 z"
       id="path1-6"
       style="fill:#10adf5;fill-opacity:1" /></g></svg>
